<svg width="300" height="300" viewBox="0 0 300 300" fill="none" xmlns="http://www.w3.org/2000/svg">
<path d="M297.384 58.0547C299.991 55.3453 300.722 51.3422 299.245 47.8828C297.773 44.4328 294.384 42.1875 290.625 42.1875H259.758L270.502 31.4484C272.334 29.6063 272.334 26.6438 270.502 24.8109C268.664 22.9781 265.702 22.9781 263.869 24.8109L246.492 42.1875H102.234C97.8187 18.1922 76.8375 0 51.5625 0C23.0859 0 0 23.0812 0 51.5625C0 80.0344 23.0859 103.125 51.5625 103.125C63.6141 103.125 74.6813 98.9578 83.4609 92.0297L159.375 167.944V271.875H121.875C116.7 271.875 112.5 276.07 112.5 281.25V300H234.375V281.25C234.375 276.07 230.175 271.875 225 271.875H187.5V167.934L297.384 58.0547ZM250.383 51.5625H290.625L271.875 70.3125H231.633L250.383 51.5625ZM51.5625 93.75C28.2609 93.75 9.375 74.8641 9.375 51.5625C9.375 28.2609 28.2609 9.375 51.5625 9.375C71.6344 9.375 88.4016 23.4 92.6719 42.1875H56.25C52.4578 42.1875 49.0406 44.4656 47.5875 47.9719C46.1344 51.4781 46.9359 55.5047 49.6219 58.1906L76.7672 85.3359C69.7313 90.5906 61.0266 93.75 51.5625 93.75ZM75 70.3125L56.25 51.5625H237.117L218.367 70.3125H75ZM208.992 79.6875L200.105 88.575C194.423 86.4703 186.877 88.5469 181.008 94.4156C175.139 100.284 173.067 107.827 175.163 113.512L164.433 124.242C162.6 126.075 162.6 129.038 164.433 130.87C166.266 132.703 169.228 132.703 171.061 130.87L181.791 120.141C187.477 122.236 195.028 120.169 200.897 114.3C206.766 108.431 208.833 100.88 206.738 95.2031L222.258 79.6875H262.5L173.438 168.75L84.375 79.6875H208.992ZM194.264 107.677C190.219 111.731 185.672 112.345 184.322 110.991C182.967 109.636 183.586 105.094 187.631 101.048C191.677 97.0031 196.223 96.3797 197.578 97.7344C198.928 99.0891 198.314 103.627 194.264 107.677ZM178.125 176.817V271.875H168.75V176.827C170.17 177.647 171.773 178.125 173.438 178.125C173.47 178.125 173.503 178.125 173.536 178.125C175.167 178.106 176.733 177.623 178.125 176.817ZM220.312 281.25C222.905 281.25 225 283.345 225 285.938V290.625H121.875V285.938C121.875 283.345 123.97 281.25 126.562 281.25H220.312Z" fill="#394240"/>
<path d="M181.003 94.4203C175.134 100.289 173.062 107.831 175.158 113.517L164.428 124.247C162.595 126.08 162.595 129.042 164.428 130.875C166.261 132.708 169.223 132.708 171.056 130.875L181.786 120.145C187.472 122.241 195.023 120.173 200.892 114.305C206.761 108.436 208.828 100.884 206.733 95.2078L222.258 79.6875H262.5L173.438 168.75L84.375 79.6875H208.992L200.105 88.575C194.423 86.4703 186.872 88.5516 181.003 94.4203Z" fill="#F76D57"/>
<path d="M51.5625 93.75C28.2609 93.75 9.375 74.8641 9.375 51.5625C9.375 28.2609 28.2609 9.375 51.5625 9.375C71.6344 9.375 88.4016 23.4 92.6719 42.1875H56.25C52.4578 42.1875 49.0406 44.4656 47.5875 47.9719C46.1344 51.4781 46.9359 55.5047 49.6219 58.1906L76.7672 85.3359C69.7313 90.5906 61.0266 93.75 51.5625 93.75Z" fill="#B4CCB9"/>
<path d="M237.117 51.5625H56.25L75 70.3125H218.367L237.117 51.5625Z" fill="#F9EBB2"/>
<path d="M168.75 176.827V271.875H178.125V176.817C176.733 177.623 175.167 178.106 173.536 178.125C173.503 178.125 173.47 178.125 173.438 178.125C171.773 178.125 170.17 177.647 168.75 176.827Z" fill="#F9EBB2"/>
<path d="M220.312 281.25H126.562C123.97 281.25 121.875 283.345 121.875 285.938V290.625H225V285.938C225 283.345 222.905 281.25 220.312 281.25Z" fill="#F9EBB2"/>
<path d="M250.383 51.5625L231.633 70.3125H271.875L290.625 51.5625H250.383Z" fill="#F9EBB2"/>
<path opacity="0.15" d="M168.75 176.827V271.875H178.125V176.817C176.733 177.623 175.167 178.106 173.536 178.125C173.503 178.125 173.47 178.125 173.438 178.125C171.773 178.125 170.17 177.647 168.75 176.827Z" fill="#231F20"/>
<path d="M194.264 107.677C190.219 111.731 185.672 112.345 184.322 110.991C182.967 109.636 183.586 105.094 187.631 101.048C191.677 97.0031 196.223 96.3797 197.578 97.7344C198.928 99.089 198.314 103.627 194.264 107.677Z" fill="#45AAB8"/>
</svg>
