<svg width="300" height="264" viewBox="0 0 300 264" fill="none" xmlns="http://www.w3.org/2000/svg">
<path d="M126.562 19.5H173.438C255.445 19.5 257.812 120.488 257.812 132H267.188C267.188 119.527 264.689 10.125 178.125 10.125H121.875C88.6125 10.125 32.8125 25.9594 32.8125 132H42.1875C42.1875 59.4516 72.1547 19.5 126.562 19.5Z" fill="#45AAB8"/>
<path d="M271.875 141.375H28.125C17.7844 141.375 9.375 149.784 9.375 160.125V207C9.375 217.341 17.7844 225.75 28.125 225.75H271.875C282.216 225.75 290.625 217.341 290.625 207V160.125C290.625 149.784 282.216 141.375 271.875 141.375Z" fill="#45AAB8"/>
<path d="M237.098 72.9094C224.573 43.6875 203.156 28.875 173.438 28.875H126.562C92.3484 28.875 51.5625 46.7625 51.5625 132H75C75 111.291 91.7906 94.5 112.5 94.5C133.209 94.5 150 111.291 150 132H248.438C248.438 124.345 247.617 97.4625 237.098 72.9094Z" fill="#F9EBB2"/>
<path d="M112.5 103.875C96.9703 103.875 84.375 116.47 84.375 132H140.625C140.625 116.47 128.03 103.875 112.5 103.875Z" fill="#F9EBB2"/>
<path d="M276.478 132.413C276.492 132.267 276.562 132.145 276.562 132C276.562 118.566 273.802 0.75 178.125 0.75H121.875C59.3156 0.75 23.4375 48.5906 23.4375 132C23.4375 132.145 23.5078 132.267 23.5219 132.413C10.2 134.62 0 146.189 0 160.125V207C0 222.511 12.6141 235.125 28.125 235.125V258.562C28.125 261.155 30.2203 263.25 32.8125 263.25H70.3125C72.9047 263.25 75 261.155 75 258.562V235.125H225V258.562C225 261.155 227.095 263.25 229.688 263.25H267.188C269.78 263.25 271.875 261.155 271.875 258.562V235.125C287.386 235.125 300 222.511 300 207V160.125C300 146.189 289.8 134.62 276.478 132.413ZM121.875 10.125H178.125C264.689 10.125 267.188 119.527 267.188 132H257.812C257.812 120.488 255.445 19.5 173.438 19.5H126.562C72.1547 19.5 42.1875 59.4516 42.1875 132H32.8125C32.8125 25.9594 88.6125 10.125 121.875 10.125ZM112.5 94.5C91.7906 94.5 75 111.291 75 132H51.5625C51.5625 46.7625 92.3484 28.875 126.562 28.875H173.438C203.156 28.875 224.573 43.6875 237.098 72.9094C247.617 97.4625 248.438 124.345 248.438 132H150C150 111.291 133.209 94.5 112.5 94.5ZM140.625 132H84.375C84.375 116.47 96.9703 103.875 112.5 103.875C128.03 103.875 140.625 116.47 140.625 132ZM65.625 253.875H37.5V235.125H65.625V253.875ZM262.5 253.875H234.375V235.125H262.5V253.875ZM290.625 207C290.625 217.341 282.216 225.75 271.875 225.75H28.125C17.7844 225.75 9.375 217.341 9.375 207V160.125C9.375 149.784 17.7844 141.375 28.125 141.375H271.875C282.216 141.375 290.625 149.784 290.625 160.125V207Z" fill="#394240"/>
<path d="M51.5625 164.812C41.2219 164.812 32.8125 173.222 32.8125 183.562C32.8125 193.903 41.2219 202.312 51.5625 202.312C61.9031 202.312 70.3125 193.903 70.3125 183.562C70.3125 173.222 61.9031 164.812 51.5625 164.812ZM51.5625 192.938C46.3922 192.938 42.1875 188.733 42.1875 183.562C42.1875 178.392 46.3922 174.188 51.5625 174.188C56.7328 174.188 60.9375 178.392 60.9375 183.562C60.9375 188.733 56.7328 192.938 51.5625 192.938Z" fill="#394240"/>
<path d="M248.438 164.812C238.097 164.812 229.688 173.222 229.688 183.562C229.688 193.903 238.097 202.312 248.438 202.312C258.778 202.312 267.188 193.903 267.188 183.562C267.188 173.222 258.778 164.812 248.438 164.812ZM248.438 192.938C243.267 192.938 239.062 188.733 239.062 183.562C239.062 178.392 243.267 174.188 248.438 174.188C253.608 174.188 257.812 178.392 257.812 183.562C257.812 188.733 253.608 192.938 248.438 192.938Z" fill="#394240"/>
<path d="M201.562 169.5H98.4375C95.8453 169.5 93.75 171.595 93.75 174.188C93.75 176.78 95.8453 178.875 98.4375 178.875H201.562C204.155 178.875 206.25 176.78 206.25 174.188C206.25 171.595 204.155 169.5 201.562 169.5Z" fill="#394240"/>
<path d="M201.562 188.25H98.4375C95.8453 188.25 93.75 190.345 93.75 192.938C93.75 195.53 95.8453 197.625 98.4375 197.625H201.562C204.155 197.625 206.25 195.53 206.25 192.938C206.25 190.345 204.155 188.25 201.562 188.25Z" fill="#394240"/>
<path d="M202.936 69.6937C203.85 70.6077 205.05 71.0671 206.25 71.0671C207.45 71.0671 208.65 70.6077 209.564 69.6937C211.397 67.8608 211.397 64.8983 209.564 63.0655L200.189 53.6905C198.356 51.8577 195.394 51.8577 193.561 53.6905C191.728 55.5233 191.728 58.4858 193.561 60.3187L202.936 69.6937Z" fill="#394240"/>
<path d="M202.936 93.1265C203.85 94.0406 205.05 94.4999 206.25 94.4999C207.45 94.4999 208.65 94.0406 209.564 93.1265C211.397 91.2937 211.397 88.3312 209.564 86.4984L176.752 53.6859C174.919 51.8531 171.956 51.8531 170.123 53.6859C168.291 55.5187 168.291 58.4812 170.123 60.314L202.936 93.1265Z" fill="#394240"/>
<path d="M65.625 235.125H37.5V253.875H65.625V235.125Z" fill="#506C7F"/>
<path d="M262.5 235.125H234.375V253.875H262.5V235.125Z" fill="#506C7F"/>
<path d="M51.5625 192.938C56.7402 192.938 60.9375 188.74 60.9375 183.562C60.9375 178.385 56.7402 174.188 51.5625 174.188C46.3848 174.188 42.1875 178.385 42.1875 183.562C42.1875 188.74 46.3848 192.938 51.5625 192.938Z" fill="#F9EBB2"/>
<path d="M248.438 192.938C253.615 192.938 257.812 188.74 257.812 183.562C257.812 178.385 253.615 174.188 248.438 174.188C243.26 174.188 239.062 178.385 239.062 183.562C239.062 188.74 243.26 192.938 248.438 192.938Z" fill="#F9EBB2"/>
<path opacity="0.15" d="M140.625 132H84.375C84.375 116.47 96.9703 103.875 112.5 103.875C128.03 103.875 140.625 116.47 140.625 132Z" fill="#231F20"/>
</svg>
