<svg width="300" height="300" viewBox="0 0 300 300" fill="none" xmlns="http://www.w3.org/2000/svg">
<g clip-path="url(#clip0_53_155)">
<path d="M9.375 18.75V84.375C9.375 89.5406 13.5797 93.75 18.75 93.75H28.125V9.375H18.75C13.5797 9.375 9.375 13.5703 9.375 18.75Z" fill="#45AAB8"/>
<path d="M65.625 281.25C65.625 286.416 69.8297 290.625 75 290.625H225C230.17 290.625 234.375 286.416 234.375 281.25V271.875H65.625V281.25Z" fill="#45AAB8"/>
<path d="M204.033 13.9781C193.898 33.5063 173.531 46.875 150 46.875C126.473 46.875 106.116 33.5156 95.9719 13.9875C95.1891 12.4781 93.75 9.375 89.1281 9.375H37.5V93.75H56.25C61.425 93.75 65.625 97.9453 65.625 103.125V262.5H234.375V103.125C234.375 97.9453 238.575 93.75 243.75 93.75H262.5V9.375H210.872C206.25 9.375 204.811 12.4781 204.033 13.9781Z" fill="#45AAB8"/>
<path d="M281.25 9.375H271.875V93.75H281.25C286.42 93.75 290.625 89.5406 290.625 84.375V18.75C290.625 13.5703 286.42 9.375 281.25 9.375Z" fill="#45AAB8"/>
<path d="M281.25 0H208.598C199.223 0 197.372 6.48281 195.825 9.48281C187.275 26.1094 169.988 37.5 150 37.5C129.98 37.5 112.65 26.0672 104.123 9.39375C102.6 6.40781 100.594 0 91.4109 0H18.75C8.38594 0 0 8.37656 0 18.75V84.375C0 94.7391 8.38594 103.125 18.75 103.125H56.25V281.25C56.25 291.614 64.6359 300 75 300H225C235.364 300 243.75 291.614 243.75 281.25V103.125H281.25C291.614 103.125 300 94.7391 300 84.375V18.75C300 8.37656 291.614 0 281.25 0ZM28.125 93.75H18.75C13.5797 93.75 9.375 89.5406 9.375 84.375V18.75C9.375 13.5703 13.5797 9.375 18.75 9.375H28.125V93.75ZM234.375 281.25C234.375 286.416 230.17 290.625 225 290.625H75C69.8297 290.625 65.625 286.416 65.625 281.25V271.875H234.375V281.25ZM262.5 93.75H243.75C238.575 93.75 234.375 97.9453 234.375 103.125V262.5H65.625V103.125C65.625 97.9453 61.425 93.75 56.25 93.75H37.5V9.375H89.1281C93.75 9.375 95.1891 12.4781 95.9719 13.9875C106.116 33.5156 126.473 46.875 150 46.875C173.531 46.875 193.898 33.5062 204.033 13.9781C204.811 12.4781 206.25 9.375 210.872 9.375H262.5V93.75ZM290.625 84.375C290.625 89.5406 286.42 93.75 281.25 93.75H271.875V9.375H281.25C286.42 9.375 290.625 13.5703 290.625 18.75V84.375Z" fill="#394240"/>
<path d="M168.75 93.75C163.575 93.75 158.888 95.8453 155.494 99.2344L150 104.7L144.506 99.2344C141.112 95.8453 136.425 93.75 131.25 93.75C120.895 93.75 112.5 102.136 112.5 112.5C112.5 117.675 115.842 122.508 119.241 125.892L146.686 153.347C148.519 155.18 151.481 155.18 153.314 153.347L180.689 125.972C184.083 122.578 187.5 117.675 187.5 112.5C187.5 102.136 179.105 93.75 168.75 93.75ZM174.169 119.231L150 143.4L125.831 119.231C124.13 117.534 121.875 115.083 121.875 112.5C121.875 107.32 126.075 103.125 131.25 103.125C133.842 103.125 136.186 104.17 137.878 105.872L146.686 114.633C148.519 116.466 151.481 116.466 153.314 114.633L162.122 105.872C163.814 104.17 166.158 103.125 168.75 103.125C173.925 103.125 178.125 107.32 178.125 112.5C178.125 115.083 175.87 117.534 174.169 119.231Z" fill="#394240"/>
<path d="M174.169 119.231L150 143.4L125.831 119.231C124.13 117.534 121.875 115.083 121.875 112.5C121.875 107.32 126.075 103.125 131.25 103.125C133.842 103.125 136.186 104.17 137.878 105.872L146.686 114.633C148.519 116.466 151.481 116.466 153.314 114.633L162.122 105.872C163.814 104.17 166.158 103.125 168.75 103.125C173.925 103.125 178.125 107.32 178.125 112.5C178.125 115.083 175.87 117.534 174.169 119.231Z" fill="#F9EBB2"/>
<path d="M9.375 18.75V84.375C9.375 89.5406 13.5797 93.75 18.75 93.75H28.125V9.375H18.75C13.5797 9.375 9.375 13.5703 9.375 18.75Z" fill="#506C7F"/>
<path d="M65.625 281.25C65.625 286.416 69.8297 290.625 75 290.625H225C230.17 290.625 234.375 286.416 234.375 281.25V271.875H65.625V281.25Z" fill="#506C7F"/>
<path d="M281.25 9.375H271.875V93.75H281.25C286.42 93.75 290.625 89.5406 290.625 84.375V18.75C290.625 13.5703 286.42 9.375 281.25 9.375Z" fill="#506C7F"/>
</g>
<defs>
<clipPath id="clip0_53_155">
<rect width="300" height="300" fill="white"/>
</clipPath>
</defs>
</svg>
