<svg width="264" height="300" viewBox="0 0 264 300" fill="none" xmlns="http://www.w3.org/2000/svg">
<path d="M244.5 290.625H28.875C18.5203 290.625 10.125 282.23 10.125 271.875C10.125 261.52 18.5203 253.125 28.875 253.125H244.5V290.625Z" fill="#F9EBB2"/>
<path d="M10.125 18.75V250.955C15.1031 246.487 21.6609 243.75 28.875 243.75H38.25V9.375H19.5C14.325 9.375 10.125 13.575 10.125 18.75Z" fill="#45AAB8"/>
<path d="M244.5 9.375H47.625V243.75H244.5H253.875V234.375V18.75C253.875 13.575 249.675 9.375 244.5 9.375Z" fill="#45AAB8"/>
<path d="M263.25 243.75V18.75C263.25 8.38594 254.864 0 244.5 0H19.5C9.13594 0 0.75 8.38594 0.75 18.75V271.875C0.75 287.405 13.3453 300 28.875 300H258.562C261.155 300 263.25 297.905 263.25 295.312C263.25 292.72 261.155 290.625 258.562 290.625H253.875V253.125C259.05 253.125 263.25 248.925 263.25 243.75ZM10.125 18.75C10.125 13.575 14.325 9.375 19.5 9.375H38.25V243.75H28.875C21.6609 243.75 15.1031 246.487 10.125 250.955V18.75ZM244.5 290.625H28.875C18.5203 290.625 10.125 282.23 10.125 271.875C10.125 261.52 18.5203 253.125 28.875 253.125H244.5V290.625ZM244.5 243.75H47.625V9.375H244.5C249.675 9.375 253.875 13.575 253.875 18.75V234.375V243.75H244.5Z" fill="#394240"/>
<path d="M183.562 121.875H89.8125C87.2203 121.875 85.125 123.97 85.125 126.562C85.125 129.155 87.2203 131.25 89.8125 131.25H183.562C186.155 131.25 188.25 129.155 188.25 126.562C188.25 123.97 186.155 121.875 183.562 121.875Z" fill="#394240"/>
<path d="M211.688 93.75H89.8125C87.2203 93.75 85.125 95.8453 85.125 98.4375C85.125 101.03 87.2203 103.125 89.8125 103.125H211.688C214.28 103.125 216.375 101.03 216.375 98.4375C216.375 95.8453 214.28 93.75 211.688 93.75Z" fill="#394240"/>
<path d="M89.8125 75H146.062C148.655 75 150.75 72.9047 150.75 70.3125C150.75 67.7203 148.655 65.625 146.062 65.625H89.8125C87.2203 65.625 85.125 67.7203 85.125 70.3125C85.125 72.9047 87.2203 75 89.8125 75Z" fill="#394240"/>
<path opacity="0.2" d="M10.125 18.75V250.955C15.1031 246.487 21.6609 243.75 28.875 243.75H38.25V9.375H19.5C14.325 9.375 10.125 13.575 10.125 18.75Z" fill="#231F20"/>
</svg>
