<svg width="300" height="300" viewBox="0 0 300 300" fill="none" xmlns="http://www.w3.org/2000/svg">
<g clip-path="url(#clip0_53_170)">
<path d="M10.7531 10.7531C12.5859 8.91563 15.5437 8.91563 17.3812 10.7531L100.181 93.5578L93.5766 100.205L10.7531 17.3813C8.91563 15.5438 8.91563 12.5859 10.7531 10.7531Z" fill="#F9EBB2"/>
<path d="M236.508 172.477C205.655 181.373 181.373 205.655 172.481 236.508C160.312 268.148 129.68 290.625 93.75 290.625C47.1516 290.625 9.375 252.848 9.375 206.25C9.375 170.325 31.8469 139.688 63.4922 127.523C94.3453 118.627 118.627 94.3453 127.519 63.4922C139.688 31.8516 170.32 9.375 206.25 9.375C252.848 9.375 290.625 47.1516 290.625 93.75C290.625 129.675 268.153 160.312 236.508 172.477Z" fill="#45AAB8"/>
<path d="M206.25 0C175.509 0 148.308 14.8406 131.241 37.7109C125.906 44.85 121.566 52.7719 118.42 61.2797C115.702 70.2609 111.483 78.6703 106.083 86.1938L24.0094 4.12031C18.5156 -1.37344 9.61406 -1.36875 4.12031 4.12031C-1.36875 9.61406 -1.37344 18.5156 4.12031 24.0094L86.2172 106.102C78.8766 111.375 70.6922 115.509 61.9125 118.162C61.6828 118.233 61.5141 118.35 61.2797 118.42C52.7766 121.566 44.85 125.911 37.7109 131.241C14.8359 148.308 0 175.509 0 206.25C0 258.028 41.9719 300 93.75 300C124.491 300 151.692 285.159 168.759 262.289C174.094 255.15 178.434 247.228 181.58 238.72C189.727 211.819 211.814 189.727 238.716 181.584C247.219 178.439 255.145 174.094 262.284 168.764C285.164 151.692 300 124.491 300 93.75C300 41.9719 258.028 0 206.25 0ZM10.7531 17.3813C8.91562 15.5437 8.91562 12.5859 10.7531 10.7531C12.5859 8.91562 15.5437 8.91562 17.3813 10.7531L100.181 93.5578L93.5766 100.205L10.7531 17.3813ZM236.508 172.477C205.655 181.373 181.373 205.655 172.481 236.508C160.312 268.148 129.68 290.625 93.75 290.625C47.1516 290.625 9.375 252.848 9.375 206.25C9.375 170.325 31.8469 139.688 63.4922 127.523C94.3453 118.627 118.627 94.3453 127.519 63.4922C139.688 31.8516 170.32 9.375 206.25 9.375C252.848 9.375 290.625 47.1516 290.625 93.75C290.625 129.675 268.153 160.312 236.508 172.477Z" fill="#394240"/>
<path d="M121.875 196.875H103.125V178.125C103.125 175.533 101.03 173.438 98.4375 173.438H79.6875C77.0953 173.438 75 175.533 75 178.125V196.875H56.25C53.6578 196.875 51.5625 198.97 51.5625 201.562V220.312C51.5625 222.905 53.6578 225 56.25 225H75V243.75C75 246.342 77.0953 248.438 79.6875 248.438H98.4375C101.03 248.438 103.125 246.342 103.125 243.75V225H121.875C124.467 225 126.562 222.905 126.562 220.312V201.562C126.562 198.97 124.467 196.875 121.875 196.875ZM117.188 215.625H93.75V239.062H84.375V215.625H60.9375V206.25H84.375V182.812H93.75V206.25H117.188V215.625Z" fill="#394240"/>
<path d="M243.75 75C235.983 75 229.688 81.3 229.688 89.0625C229.688 96.825 235.983 103.125 243.75 103.125C251.517 103.125 257.812 96.825 257.812 89.0625C257.812 81.3 251.517 75 243.75 75ZM243.75 93.75C241.158 93.75 239.062 91.6547 239.062 89.0625C239.062 86.4703 241.158 84.375 243.75 84.375C246.342 84.375 248.438 86.4703 248.438 89.0625C248.438 91.6547 246.342 93.75 243.75 93.75Z" fill="#394240"/>
<path d="M178.125 75C170.358 75 164.062 81.3 164.062 89.0625C164.062 96.825 170.358 103.125 178.125 103.125C185.892 103.125 192.188 96.825 192.188 89.0625C192.188 81.3 185.892 75 178.125 75ZM178.125 93.75C175.533 93.75 173.438 91.6547 173.438 89.0625C173.438 86.4703 175.533 84.375 178.125 84.375C180.717 84.375 182.812 86.4703 182.812 89.0625C182.812 91.6547 180.717 93.75 178.125 93.75Z" fill="#394240"/>
<path d="M210.938 107.812C203.175 107.812 196.875 114.108 196.875 121.875C196.875 129.642 203.175 135.938 210.938 135.938C218.7 135.938 225 129.642 225 121.875C225 114.108 218.7 107.812 210.938 107.812ZM210.938 126.562C208.345 126.562 206.25 124.467 206.25 121.875C206.25 119.283 208.345 117.188 210.938 117.188C213.53 117.188 215.625 119.283 215.625 121.875C215.625 124.467 213.53 126.562 210.938 126.562Z" fill="#394240"/>
<path d="M210.938 42.1875C203.175 42.1875 196.875 48.4828 196.875 56.25C196.875 64.0172 203.175 70.3125 210.938 70.3125C218.7 70.3125 225 64.0172 225 56.25C225 48.4828 218.7 42.1875 210.938 42.1875ZM210.938 60.9375C208.345 60.9375 206.25 58.8422 206.25 56.25C206.25 53.6578 208.345 51.5625 210.938 51.5625C213.53 51.5625 215.625 53.6578 215.625 56.25C215.625 58.8422 213.53 60.9375 210.938 60.9375Z" fill="#394240"/>
<path d="M140.058 153.314L130.116 163.256C128.278 165.094 128.278 168.052 130.116 169.884C131.948 171.722 134.906 171.722 136.744 169.884L146.686 159.942C148.519 158.109 148.519 155.147 146.686 153.314C144.853 151.481 141.891 151.481 140.058 153.314Z" fill="#394240"/>
<path d="M163.256 130.116L153.314 140.058C151.481 141.891 151.481 144.853 153.314 146.686C155.147 148.519 158.109 148.519 159.942 146.686L169.884 136.744C171.717 134.911 171.717 131.948 169.884 130.116C168.052 128.283 165.089 128.283 163.256 130.116Z" fill="#394240"/>
<path d="M117.188 206.25H93.75V182.812H84.375V206.25H60.9375V215.625H84.375V239.062H93.75V215.625H117.188V206.25Z" fill="#F9EBB2"/>
<path d="M178.125 93.75C180.714 93.75 182.812 91.6513 182.812 89.0625C182.812 86.4737 180.714 84.375 178.125 84.375C175.536 84.375 173.438 86.4737 173.438 89.0625C173.438 91.6513 175.536 93.75 178.125 93.75Z" fill="#F9EBB2"/>
<path d="M210.938 126.562C213.526 126.562 215.625 124.464 215.625 121.875C215.625 119.286 213.526 117.188 210.938 117.188C208.349 117.188 206.25 119.286 206.25 121.875C206.25 124.464 208.349 126.562 210.938 126.562Z" fill="#506C7F"/>
<path d="M243.75 93.75C246.339 93.75 248.438 91.6513 248.438 89.0625C248.438 86.4737 246.339 84.375 243.75 84.375C241.161 84.375 239.062 86.4737 239.062 89.0625C239.062 91.6513 241.161 93.75 243.75 93.75Z" fill="#F76D57"/>
<path d="M210.938 60.9375C213.526 60.9375 215.625 58.8388 215.625 56.25C215.625 53.6612 213.526 51.5625 210.938 51.5625C208.349 51.5625 206.25 53.6612 206.25 56.25C206.25 58.8388 208.349 60.9375 210.938 60.9375Z" fill="#B4CCB9"/>
</g>
<defs>
<clipPath id="clip0_53_170">
<rect width="300" height="300" fill="white"/>
</clipPath>
</defs>
</svg>
