<svg width="300" height="300" viewBox="0 0 300 300" fill="none" xmlns="http://www.w3.org/2000/svg">
<g clip-path="url(#clip0_50_107)">
<path d="M215.625 290.625C225.98 290.625 234.375 282.23 234.375 271.875C234.375 261.52 225.98 253.125 215.625 253.125C205.27 253.125 196.875 261.52 196.875 271.875C196.875 282.23 205.27 290.625 215.625 290.625Z" fill="#B4CCB9"/>
<path d="M94.1719 290.625C104.527 290.625 112.922 282.23 112.922 271.875C112.922 261.52 104.527 253.125 94.1719 253.125C83.8165 253.125 75.4219 261.52 75.4219 271.875C75.4219 282.23 83.8165 290.625 94.1719 290.625Z" fill="#B4CCB9"/>
<path d="M46.875 14.0625C46.1109 11.5078 43.9969 9.375 41.4047 9.375H14.0625C11.4703 9.375 9.375 11.4703 9.375 14.0625C9.375 16.6547 11.4703 18.75 14.0625 18.75C14.0625 18.75 32.0297 18.75 35.2922 18.75C38.5547 18.75 39.2812 21.6141 39.2812 21.6141L52.4719 77.7C55.1344 75.9797 58.7156 75 63.3656 75H61.2141L46.875 14.0625Z" fill="#B4CCB9"/>
<path d="M290.503 93.75L262.378 215.625C261.108 221.091 257.592 225 252.417 225H94.364C89.1984 225 85.6921 221.091 84.4265 215.625L56.3577 93.75C54.8952 87.9844 56.9437 84.375 63.2906 84.375H283.551C289.917 84.375 291.966 87.9844 290.503 93.75Z" fill="#F76D57"/>
<path d="M215.625 276.562C218.214 276.562 220.312 274.464 220.312 271.875C220.312 269.286 218.214 267.188 215.625 267.188C213.036 267.188 210.938 269.286 210.938 271.875C210.938 274.464 213.036 276.562 215.625 276.562Z" fill="#394240"/>
<path d="M94.1719 276.562C96.7607 276.562 98.8594 274.464 98.8594 271.875C98.8594 269.286 96.7607 267.188 94.1719 267.188C91.583 267.188 89.4844 269.286 89.4844 271.875C89.4844 274.464 91.583 276.562 94.1719 276.562Z" fill="#394240"/>
<path d="M283.481 75H70.5891L56.25 14.0625C54.1969 5.85938 48.6844 0 40.9172 0H14.0625C6.29531 0 0 6.29063 0 14.0625C0 21.825 6.29531 28.125 14.0625 28.125H31.5141L47.3156 93.75L83.4 245.892C73.2141 250.12 66.0469 260.156 66.0469 271.875C66.0469 287.4 78.6422 300 94.1719 300C108.103 300 119.639 289.866 121.875 276.562H187.922C190.163 289.866 201.694 300 215.625 300C231.155 300 243.75 287.4 243.75 271.875C243.75 256.341 231.155 243.75 215.625 243.75C201.694 243.75 190.158 253.894 187.922 267.188H121.875C119.634 253.894 108.103 243.75 94.1719 243.75C93.5859 243.75 93.0188 243.806 92.4422 243.834L89.4328 233.25C91.4391 233.93 93.6188 234.375 96.1172 234.375H250.659C262.964 234.375 268.978 225.45 271.753 215.625L299.564 93.75C301.613 82.4156 296.555 75 283.481 75ZM215.625 253.125C225.98 253.125 234.375 261.52 234.375 271.875C234.375 282.23 225.98 290.625 215.625 290.625C205.27 290.625 196.875 282.23 196.875 271.875C196.875 261.52 205.27 253.125 215.625 253.125ZM39.2813 21.6141C39.2813 21.6141 38.5594 18.75 35.2922 18.75C32.025 18.75 14.0625 18.75 14.0625 18.75C11.4703 18.75 9.375 16.6547 9.375 14.0625C9.375 11.4703 11.4703 9.375 14.0625 9.375H41.4047C43.9969 9.375 46.1109 11.5078 46.875 14.0625L61.2141 75H63.3656C58.7203 75 55.1344 75.9797 52.4766 77.7L39.2813 21.6141ZM94.1719 253.125C104.527 253.125 112.922 261.52 112.922 271.875C112.922 282.23 104.527 290.625 94.1719 290.625C83.8172 290.625 75.4219 282.23 75.4219 271.875C75.4219 261.52 83.8172 253.125 94.1719 253.125ZM290.503 93.75L262.378 215.625C261.108 221.091 257.592 225 252.417 225H94.3641C89.1984 225 85.6922 221.091 84.4266 215.625L56.3578 93.75C54.8953 87.9844 56.9438 84.375 63.2906 84.375H283.552C289.917 84.375 291.966 87.9844 290.503 93.75Z" fill="#394240"/>
<path d="M173.438 103.125C165.67 103.125 159.375 109.416 159.375 117.188V192.188C159.375 199.95 165.67 206.25 173.438 206.25C181.205 206.25 187.5 199.95 187.5 192.188V117.188C187.5 109.416 181.205 103.125 173.438 103.125ZM178.125 192.188C178.125 194.78 176.03 196.875 173.438 196.875C170.845 196.875 168.75 194.78 168.75 192.188V117.188C168.75 114.595 170.845 112.5 173.438 112.5C176.03 112.5 178.125 114.595 178.125 117.188V192.188Z" fill="#394240"/>
<path d="M220.312 103.125C212.545 103.125 206.25 109.416 206.25 117.188V192.188C206.25 199.95 212.545 206.25 220.312 206.25C228.08 206.25 234.375 199.95 234.375 192.188V117.188C234.375 109.416 228.08 103.125 220.312 103.125ZM225 192.188C225 194.78 222.905 196.875 220.312 196.875C217.72 196.875 215.625 194.78 215.625 192.188V117.188C215.625 114.595 217.72 112.5 220.312 112.5C222.905 112.5 225 114.595 225 117.188V192.188Z" fill="#394240"/>
<path d="M126.562 103.125C118.795 103.125 112.5 109.416 112.5 117.188V192.188C112.5 199.95 118.795 206.25 126.562 206.25C134.33 206.25 140.625 199.95 140.625 192.188V117.188C140.625 109.416 134.33 103.125 126.562 103.125ZM131.25 192.188C131.25 194.78 129.155 196.875 126.562 196.875C123.97 196.875 121.875 194.78 121.875 192.188V117.188C121.875 114.595 123.97 112.5 126.562 112.5C129.155 112.5 131.25 114.595 131.25 117.188V192.188Z" fill="#394240"/>
<g opacity="0.2">
<path d="M220.312 112.5C217.72 112.5 215.625 114.595 215.625 117.188V192.188C215.625 194.78 217.72 196.875 220.312 196.875C222.905 196.875 225 194.78 225 192.188V117.188C225 114.595 222.905 112.5 220.312 112.5Z" fill="#231F20"/>
<path d="M173.438 112.5C170.845 112.5 168.75 114.595 168.75 117.188V192.188C168.75 194.78 170.845 196.875 173.438 196.875C176.03 196.875 178.125 194.78 178.125 192.188V117.188C178.125 114.595 176.03 112.5 173.438 112.5Z" fill="#231F20"/>
<path d="M126.562 112.5C123.97 112.5 121.875 114.595 121.875 117.188V192.188C121.875 194.78 123.97 196.875 126.562 196.875C129.155 196.875 131.25 194.78 131.25 192.188V117.188C131.25 114.595 129.155 112.5 126.562 112.5Z" fill="#231F20"/>
</g>
</g>
<defs>
<clipPath id="clip0_50_107">
<rect width="300" height="300" fill="white"/>
</clipPath>
</defs>
</svg>
