<svg width="300" height="300" viewBox="0 0 300 300" fill="none" xmlns="http://www.w3.org/2000/svg">
<path d="M153.488 265.823C137.531 281.817 116.311 290.625 93.75 290.625C47.2266 290.625 9.375 252.778 9.375 206.25C9.375 183.689 18.1828 162.469 34.1906 146.503L87.0187 93.6469L206.362 212.991L153.488 265.823Z" fill="#F76D57"/>
<path d="M265.547 153.83L212.991 206.358L93.6422 87.0094L146.156 34.4672C146.545 34.1859 146.92 33.8719 147.277 33.525C163.177 17.9531 184.116 9.375 206.25 9.375C252.773 9.375 290.625 47.2219 290.625 93.75C290.625 115.88 282.052 136.823 266.48 152.723C266.133 153.075 265.823 153.441 265.547 153.83Z" fill="#F9EBB2"/>
<path d="M300 93.75C300 41.9672 258.033 0 206.25 0C180.708 0 157.617 10.2703 140.719 26.8266L140.625 26.7328L27.5578 139.875C10.5469 156.848 0 180.305 0 206.25C0 258.033 41.9672 300 93.75 300C119.695 300 143.152 289.453 160.125 272.442L273.267 159.375L273.173 159.281C289.73 142.383 300 119.273 300 93.75ZM153.488 265.823C137.531 281.817 116.311 290.625 93.75 290.625C47.2266 290.625 9.375 252.778 9.375 206.25C9.375 183.689 18.1828 162.469 34.1906 146.503L87.0187 93.6469L206.362 212.991L153.488 265.823ZM265.547 153.83L212.991 206.358L93.6422 87.0094L146.156 34.4672C146.545 34.1859 146.92 33.8719 147.277 33.525C163.177 17.9531 184.116 9.375 206.25 9.375C252.773 9.375 290.625 47.2219 290.625 93.75C290.625 115.88 282.052 136.823 266.48 152.723C266.133 153.075 265.823 153.441 265.547 153.83Z" fill="#394240"/>
<path d="M206.25 28.125C203.658 28.125 201.562 30.2203 201.562 32.8125C201.562 35.4047 203.658 37.5 206.25 37.5C237.314 37.5 262.5 62.6859 262.5 93.75C262.5 96.3422 264.595 98.4375 267.188 98.4375C269.78 98.4375 271.875 96.3422 271.875 93.75C271.875 57.5063 242.494 28.125 206.25 28.125Z" fill="#394240"/>
</svg>
