<svg width="300" height="300" viewBox="0 0 300 300" fill="none" xmlns="http://www.w3.org/2000/svg">
<g clip-path="url(#clip0_50_93)">
<path d="M262.5 281.25C262.5 286.425 258.3 290.625 253.125 290.625H178.125V220.313C178.125 217.72 176.03 215.625 173.438 215.625H126.562C123.97 215.625 121.875 217.72 121.875 220.313V290.625H46.875C41.7 290.625 37.5 286.425 37.5 281.25V147.239L150.042 34.7017L262.5 147.159V281.25Z" fill="#F9EBB2"/>
<path d="M65.625 28.125H84.375V59.0672L65.625 77.7797V28.125Z" fill="#FF2300"/>
<path d="M168.75 225H131.25V290.625H168.75V225Z" fill="#F9EBB2"/>
<path d="M285.938 154.688C284.644 154.688 283.116 154.519 282.272 153.67L153.356 24.7547C152.442 23.8406 151.242 23.3812 150.042 23.3812C148.842 23.3812 147.642 23.8406 146.728 24.7547L17.7703 153.717C16.9219 154.566 15.3562 154.688 14.0625 154.688C11.4703 154.688 9.375 152.592 9.375 150C9.375 148.706 9.45 147.084 10.2984 146.236L145.477 11.2969C145.477 11.2969 147.225 9.375 150.042 9.375C152.859 9.375 154.645 11.2406 154.645 11.2406L289.673 146.264C290.522 147.113 290.625 148.706 290.625 150C290.625 152.587 288.53 154.688 285.938 154.688Z" fill="#FF2300"/>
<path d="M296.302 139.636L161.428 4.75781C161.428 4.75781 157.036 0 150.037 0C143.039 0 138.9 4.64531 138.9 4.64531L93.75 49.7062V23.4375C93.75 20.8453 91.6547 18.75 89.0625 18.75H60.9375C58.3453 18.75 56.25 20.8453 56.25 23.4375V87.1359L3.67031 139.608C1.125 142.153 0 146.119 0 150C0 157.762 6.29531 164.062 14.0625 164.062C17.9438 164.062 21.8531 162.886 24.3984 160.341L28.125 156.614V281.25C28.125 291.614 36.5109 300 46.875 300H253.125C263.489 300 271.875 291.614 271.875 281.25V156.534L275.644 160.303C278.189 162.839 282.056 164.062 285.938 164.062C293.705 164.062 300 157.767 300 150C300 146.114 298.847 142.181 296.302 139.636ZM65.625 28.125H84.375V59.0672L65.625 77.7797V28.125ZM168.75 290.625H131.25V225H168.75V290.625ZM262.5 281.25C262.5 286.425 258.3 290.625 253.125 290.625H178.125V220.312C178.125 217.72 176.03 215.625 173.438 215.625H126.562C123.97 215.625 121.875 217.72 121.875 220.312V290.625H46.875C41.7 290.625 37.5 286.425 37.5 281.25V147.239L150.042 34.7016L262.5 147.159V281.25ZM285.938 154.688C284.644 154.688 283.116 154.519 282.272 153.67L153.356 24.7547C152.442 23.8406 151.242 23.3813 150.042 23.3813C148.842 23.3813 147.642 23.8406 146.728 24.7547L17.7703 153.717C16.9219 154.566 15.3562 154.688 14.0625 154.688C11.4703 154.688 9.375 152.592 9.375 150C9.375 148.706 9.45 147.084 10.2984 146.236L145.477 11.2969C145.477 11.2969 147.225 9.375 150.042 9.375C152.859 9.375 154.645 11.2406 154.645 11.2406L289.673 146.264C290.522 147.113 290.625 148.706 290.625 150C290.625 152.587 288.53 154.688 285.938 154.688Z" fill="#394240"/>
<path d="M107.812 150H70.3125C67.7203 150 65.625 152.095 65.625 154.688V192.188C65.625 194.78 67.7203 196.875 70.3125 196.875H107.812C110.405 196.875 112.5 194.78 112.5 192.188V154.688C112.5 152.095 110.405 150 107.812 150ZM103.125 187.5H75V159.375H103.125V187.5Z" fill="#394240"/>
<path d="M192.188 196.875H229.688C232.28 196.875 234.375 194.78 234.375 192.188V154.688C234.375 152.095 232.28 150 229.688 150H192.188C189.595 150 187.5 152.095 187.5 154.688V192.188C187.5 194.78 189.595 196.875 192.188 196.875ZM196.875 159.375H225V187.5H196.875V159.375Z" fill="#394240"/>
<path d="M168.75 225H131.25V290.625H168.75V225Z" fill="#506C7F"/>
<path d="M103.125 159.375H75V187.5H103.125V159.375Z" fill="#45AAB8"/>
<path d="M225 159.375H196.875V187.5H225V159.375Z" fill="#45AAB8"/>
</g>
<defs>
<clipPath id="clip0_50_93">
<rect width="300" height="300" fill="white"/>
</clipPath>
</defs>
</svg>
