<svg width="188" height="300" viewBox="0 0 188 300" fill="none" xmlns="http://www.w3.org/2000/svg">
<path d="M178.375 46.875H9.625V234.375H178.375V46.875Z" fill="#506C7F"/>
<path d="M9.625 18.75V37.5H178.375V18.75C178.375 13.575 174.175 9.375 169 9.375H19C13.825 9.375 9.625 13.575 9.625 18.75Z" fill="#F9EBB2"/>
<path d="M178.375 281.25V243.75H9.625V281.25C9.625 286.425 13.825 290.625 19 290.625H169C174.175 290.625 178.375 286.425 178.375 281.25Z" fill="#F9EBB2"/>
<path d="M169 0H19C8.63594 0 0.25 8.38594 0.25 18.75V281.25C0.25 291.614 8.63594 300 19 300H169C179.364 300 187.75 291.614 187.75 281.25V18.75C187.75 8.38594 179.364 0 169 0ZM178.375 281.25C178.375 286.425 174.175 290.625 169 290.625H19C13.825 290.625 9.625 286.425 9.625 281.25V243.75H178.375V281.25ZM178.375 234.375H9.625V46.875H178.375V234.375ZM178.375 37.5H9.625V18.75C9.625 13.575 13.825 9.375 19 9.375H169C174.175 9.375 178.375 13.575 178.375 18.75V37.5Z" fill="#394240"/>
<path d="M94 281.25C101.772 281.25 108.062 274.959 108.062 267.188C108.062 259.416 101.772 253.125 94 253.125C86.2281 253.125 79.9375 259.416 79.9375 267.188C79.9375 274.959 86.2281 281.25 94 281.25ZM94 262.5C96.5922 262.5 98.6875 264.595 98.6875 267.188C98.6875 269.78 96.5922 271.875 94 271.875C91.4078 271.875 89.3125 269.78 89.3125 267.188C89.3125 264.595 91.4078 262.5 94 262.5Z" fill="#394240"/>
<path d="M98.6875 18.75H70.5625C67.9703 18.75 65.875 20.8453 65.875 23.4375C65.875 26.0297 67.9703 28.125 70.5625 28.125H98.6875C101.28 28.125 103.375 26.0297 103.375 23.4375C103.375 20.8453 101.28 18.75 98.6875 18.75Z" fill="#394240"/>
<path d="M117.438 28.125C120.026 28.125 122.125 26.0263 122.125 23.4375C122.125 20.8487 120.026 18.75 117.438 18.75C114.849 18.75 112.75 20.8487 112.75 23.4375C112.75 26.0263 114.849 28.125 117.438 28.125Z" fill="#394240"/>
<path d="M94 271.875C96.5888 271.875 98.6875 269.776 98.6875 267.188C98.6875 264.599 96.5888 262.5 94 262.5C91.4112 262.5 89.3125 264.599 89.3125 267.188C89.3125 269.776 91.4112 271.875 94 271.875Z" fill="#B4CCB9"/>
</svg>
