<svg width="300" height="300" viewBox="0 0 300 300" fill="none" xmlns="http://www.w3.org/2000/svg">
<path d="M201.68 9.95157C206.55 8.175 211.927 10.6828 213.698 15.5531L228.516 56.25H199.931C196.059 45.3328 185.677 37.5 173.438 37.5C161.198 37.5 150.816 45.3375 146.953 56.25H74.4609L201.68 9.95157Z" fill="#F9EBB2"/>
<path d="M189.586 56.25H157.284C160.533 50.6766 166.514 46.875 173.433 46.875C180.352 46.875 186.338 50.6719 189.586 56.25Z" fill="#F76D57"/>
<path d="M250.608 29.9718C248.138 27.764 244.317 28.0968 244.289 28.0968C243.961 28.125 238.2 28.725 228.816 29.6812L238.495 56.25H253.125V37.5C253.125 33.9984 252.281 31.4625 250.608 29.9718Z" fill="#506C7F"/>
<path d="M12.4594 57.4125C14.4328 56.7047 16.5328 56.25 18.75 56.25H47.0531L76.8234 45.4172C51.7125 48.0469 30.4453 50.2875 19.2703 51.5344C16.0875 51.8906 13.9312 54.3703 12.4594 57.4125Z" fill="#506C7F"/>
<path d="M271.875 281.25C271.875 286.43 267.68 290.625 262.5 290.625H18.75C13.575 290.625 9.375 286.43 9.375 281.25V75C9.375 69.825 13.575 65.625 18.75 65.625H262.5C267.68 65.625 271.875 69.825 271.875 75V150H196.875C191.695 150 187.5 154.195 187.5 159.375V196.875C187.5 202.055 191.695 206.25 196.875 206.25H271.875V281.25Z" fill="#45AAB8"/>
<path d="M290.625 192.188C290.625 194.78 288.53 196.875 285.938 196.875H201.562C198.97 196.875 196.875 194.78 196.875 192.188V164.062C196.875 161.47 198.97 159.375 201.562 159.375H285.938C288.53 159.375 290.625 161.47 290.625 164.062V192.188Z" fill="#B4CCB9"/>
<path d="M290.625 150H281.25V75C281.25 64.6359 272.864 56.25 262.5 56.25V37.5C262.5 31.2094 260.606 26.3203 256.852 22.9781C251.292 18.014 244.027 18.7125 243.277 18.7781C242.939 18.8062 236.32 19.4906 225.516 20.6015L222.511 12.3515C218.967 2.61092 208.219 -2.40471 198.478 1.14373L113.114 32.2078C72.8203 36.389 34.6735 40.3922 18.2344 42.2109C4.45784 43.7437 0.290649 60.5062 2.44142e-05 70.1719C-0.0140381 70.7953 2.44142e-05 281.25 2.44142e-05 281.25C2.44142e-05 291.614 8.38596 300 18.75 300H262.5C272.864 300 281.25 291.614 281.25 281.25V206.25H290.625C295.805 206.25 300 202.055 300 196.875V159.375C300 154.195 295.805 150 290.625 150ZM244.289 28.0969C244.317 28.0969 248.133 27.7687 250.608 29.9719C252.281 31.4625 253.125 33.9984 253.125 37.5V56.25H238.495L228.82 29.6812C238.2 28.725 243.961 28.125 244.289 28.0969ZM201.68 9.95154C206.55 8.17498 211.927 10.6828 213.698 15.5531L228.516 56.25H199.931C196.059 45.3328 185.677 37.5 173.438 37.5C161.198 37.5 150.816 45.3375 146.953 56.25H74.461L201.68 9.95154ZM189.586 56.25H157.284C160.533 50.6765 166.514 46.875 173.433 46.875C180.352 46.875 186.338 50.6719 189.586 56.25ZM19.2703 51.5344C30.45 50.2875 51.7125 48.0469 76.8235 45.4172L47.0578 56.25H18.75C16.5281 56.25 14.4281 56.7094 12.4547 57.4125C13.9313 54.3703 16.0875 51.8906 19.2703 51.5344ZM271.875 281.25C271.875 286.43 267.68 290.625 262.5 290.625H18.75C13.575 290.625 9.37502 286.43 9.37502 281.25V75C9.37502 69.825 13.575 65.625 18.75 65.625H262.5C267.68 65.625 271.875 69.825 271.875 75V150H196.875C191.695 150 187.5 154.195 187.5 159.375V196.875C187.5 202.055 191.695 206.25 196.875 206.25H271.875V281.25ZM290.625 192.187C290.625 194.78 288.53 196.875 285.938 196.875H201.563C198.97 196.875 196.875 194.78 196.875 192.187V164.062C196.875 161.47 198.97 159.375 201.563 159.375H285.938C288.53 159.375 290.625 161.47 290.625 164.062V192.187Z" fill="#394240"/>
<path d="M215.625 187.5C220.803 187.5 225 183.303 225 178.125C225 172.947 220.803 168.75 215.625 168.75C210.447 168.75 206.25 172.947 206.25 178.125C206.25 183.303 210.447 187.5 215.625 187.5Z" fill="#394240"/>
<path d="M248.438 93.75H257.812C260.405 93.75 262.5 91.6547 262.5 89.0625C262.5 86.4703 260.405 84.375 257.812 84.375H248.438C245.845 84.375 243.75 86.4703 243.75 89.0625C243.75 91.6547 245.845 93.75 248.438 93.75Z" fill="#394240"/>
<path d="M220.312 93.75H229.688C232.28 93.75 234.375 91.6547 234.375 89.0625C234.375 86.4703 232.28 84.375 229.688 84.375H220.312C217.72 84.375 215.625 86.4703 215.625 89.0625C215.625 91.6547 217.72 93.75 220.312 93.75Z" fill="#394240"/>
<path d="M192.188 93.75H201.562C204.155 93.75 206.25 91.6547 206.25 89.0625C206.25 86.4703 204.155 84.375 201.562 84.375H192.188C189.595 84.375 187.5 86.4703 187.5 89.0625C187.5 91.6547 189.595 93.75 192.188 93.75Z" fill="#394240"/>
<path d="M173.438 84.375H164.062C161.47 84.375 159.375 86.4703 159.375 89.0625C159.375 91.6547 161.47 93.75 164.062 93.75H173.438C176.03 93.75 178.125 91.6547 178.125 89.0625C178.125 86.4703 176.03 84.375 173.438 84.375Z" fill="#394240"/>
<path d="M145.312 84.375H135.938C133.345 84.375 131.25 86.4703 131.25 89.0625C131.25 91.6547 133.345 93.75 135.938 93.75H145.312C147.905 93.75 150 91.6547 150 89.0625C150 86.4703 147.905 84.375 145.312 84.375Z" fill="#394240"/>
<path d="M117.188 84.375H107.812C105.22 84.375 103.125 86.4703 103.125 89.0625C103.125 91.6547 105.22 93.75 107.812 93.75H117.188C119.78 93.75 121.875 91.6547 121.875 89.0625C121.875 86.4703 119.78 84.375 117.188 84.375Z" fill="#394240"/>
<path d="M89.0625 84.375H79.6875C77.1 84.375 75 86.4703 75 89.0625C75 91.6547 77.0953 93.75 79.6875 93.75H89.0625C91.6547 93.75 93.75 91.6547 93.75 89.0625C93.75 86.4703 91.6547 84.375 89.0625 84.375Z" fill="#394240"/>
<path d="M60.9375 84.375H51.5625C48.9703 84.375 46.875 86.4703 46.875 89.0625C46.875 91.6547 48.9703 93.75 51.5625 93.75H60.9375C63.5297 93.75 65.625 91.6547 65.625 89.0625C65.625 86.4703 63.5297 84.375 60.9375 84.375Z" fill="#394240"/>
<path d="M32.8125 84.375H23.4375C20.8453 84.375 18.75 86.4703 18.75 89.0625C18.75 91.6547 20.8453 93.75 23.4375 93.75H32.8125C35.4047 93.75 37.5 91.6547 37.5 89.0625C37.5 86.4703 35.4047 84.375 32.8125 84.375Z" fill="#394240"/>
<path d="M248.438 271.875H257.812C260.405 271.875 262.5 269.78 262.5 267.187C262.5 264.595 260.405 262.5 257.812 262.5H248.438C245.845 262.5 243.75 264.595 243.75 267.187C243.75 269.78 245.845 271.875 248.438 271.875Z" fill="#394240"/>
<path d="M220.312 271.875H229.688C232.28 271.875 234.375 269.78 234.375 267.187C234.375 264.595 232.28 262.5 229.688 262.5H220.312C217.72 262.5 215.625 264.595 215.625 267.187C215.625 269.78 217.72 271.875 220.312 271.875Z" fill="#394240"/>
<path d="M187.5 267.187C187.5 269.78 189.595 271.875 192.188 271.875H201.562C204.155 271.875 206.25 269.78 206.25 267.187C206.25 264.595 204.155 262.5 201.562 262.5H192.188C189.595 262.5 187.5 264.595 187.5 267.187Z" fill="#394240"/>
<path d="M173.438 262.5H164.062C161.47 262.5 159.375 264.595 159.375 267.187C159.375 269.78 161.47 271.875 164.062 271.875H173.438C176.03 271.875 178.125 269.78 178.125 267.187C178.125 264.595 176.03 262.5 173.438 262.5Z" fill="#394240"/>
<path d="M145.312 262.5H135.938C133.345 262.5 131.25 264.595 131.25 267.187C131.25 269.78 133.345 271.875 135.938 271.875H145.312C147.905 271.875 150 269.78 150 267.187C150 264.595 147.905 262.5 145.312 262.5Z" fill="#394240"/>
<path d="M117.188 262.5H107.812C105.22 262.5 103.125 264.595 103.125 267.187C103.125 269.78 105.22 271.875 107.812 271.875H117.188C119.78 271.875 121.875 269.78 121.875 267.187C121.875 264.595 119.78 262.5 117.188 262.5Z" fill="#394240"/>
<path d="M89.0625 262.5H79.6875C77.1 262.5 75 264.595 75 267.187C75 269.78 77.0953 271.875 79.6875 271.875H89.0625C91.6547 271.875 93.75 269.78 93.75 267.187C93.75 264.595 91.6547 262.5 89.0625 262.5Z" fill="#394240"/>
<path d="M60.9375 262.5H51.5625C48.9703 262.5 46.875 264.595 46.875 267.187C46.875 269.78 48.9703 271.875 51.5625 271.875H60.9375C63.5297 271.875 65.625 269.78 65.625 267.187C65.625 264.595 63.5297 262.5 60.9375 262.5Z" fill="#394240"/>
<path d="M32.8125 262.5H23.4375C20.8453 262.5 18.75 264.595 18.75 267.187C18.75 269.78 20.8453 271.875 23.4375 271.875H32.8125C35.4047 271.875 37.5 269.78 37.5 267.187C37.5 264.595 35.4047 262.5 32.8125 262.5Z" fill="#394240"/>
</svg>
