<svg width="226" height="300" viewBox="0 0 226 300" fill="none" xmlns="http://www.w3.org/2000/svg">
<path d="M66.125 56.25C66.125 30.3609 87.1156 9.375 113 9.375C138.884 9.375 159.875 30.3609 159.875 56.25V112.5H150.5V56.25C150.5 35.5406 133.709 18.75 113 18.75C92.2906 18.75 75.5 35.5406 75.5 56.25V112.5H66.125V56.25Z" fill="#F9EBB2"/>
<path d="M9.875 281.25C9.875 286.425 14.075 290.625 19.25 290.625H206.75C211.925 290.625 216.125 286.425 216.125 281.25V271.875H9.875V281.25Z" fill="#45AAB8"/>
<path d="M211.438 103.125H169.25V117.188C169.25 119.78 167.155 121.875 164.562 121.875H145.812C143.22 121.875 141.125 119.78 141.125 117.188V103.125H84.875V117.188C84.875 119.78 82.7797 121.875 80.1875 121.875H61.4375C58.8453 121.875 56.75 119.78 56.75 117.188V103.125H14.5625C11.9703 103.125 9.875 105.22 9.875 107.812V262.5H216.125V107.812C216.125 105.22 214.03 103.125 211.438 103.125Z" fill="#45AAB8"/>
<path d="M216.125 93.75H169.25V56.25C169.25 25.1859 144.064 0 113 0C81.9359 0 56.75 25.1859 56.75 56.25V93.75H9.875C4.69531 93.75 0.5 97.9453 0.5 103.125V281.25C0.5 291.614 8.88594 300 19.25 300H206.75C217.114 300 225.5 291.614 225.5 281.25V103.125C225.5 97.9453 221.305 93.75 216.125 93.75ZM66.125 56.25C66.125 30.3609 87.1156 9.375 113 9.375C138.884 9.375 159.875 30.3609 159.875 56.25V112.5H150.5V56.25C150.5 35.5406 133.709 18.75 113 18.75C92.2906 18.75 75.5 35.5406 75.5 56.25V112.5H66.125V56.25ZM141.125 56.25V93.75H84.875V56.25C84.875 40.7156 97.4703 28.125 113 28.125C128.53 28.125 141.125 40.7156 141.125 56.25ZM216.125 281.25C216.125 286.425 211.925 290.625 206.75 290.625H19.25C14.075 290.625 9.875 286.425 9.875 281.25V271.875H216.125V281.25ZM216.125 262.5H9.875V107.812C9.875 105.22 11.9703 103.125 14.5625 103.125H56.75V117.188C56.75 119.78 58.8453 121.875 61.4375 121.875H80.1875C82.7797 121.875 84.875 119.78 84.875 117.188V103.125H141.125V117.188C141.125 119.78 143.22 121.875 145.812 121.875H164.562C167.155 121.875 169.25 119.78 169.25 117.188V103.125H211.438C214.03 103.125 216.125 105.22 216.125 107.812V262.5Z" fill="#394240"/>
<path d="M131.75 159.375C126.575 159.375 121.888 161.47 118.494 164.869L113 170.325L107.506 164.869C104.112 161.47 99.425 159.375 94.25 159.375C83.8953 159.375 75.5 167.77 75.5 178.125C75.5 183.3 78.8422 188.133 82.2406 191.527L109.686 218.972C111.519 220.805 114.481 220.805 116.314 218.972L143.689 191.597C147.083 188.203 150.5 183.3 150.5 178.125C150.5 167.77 142.105 159.375 131.75 159.375ZM137.169 184.866L113 209.034L88.8312 184.866C87.1297 183.169 84.875 180.717 84.875 178.125C84.875 172.945 89.075 168.75 94.25 168.75C96.8422 168.75 99.1859 169.795 100.878 171.497L109.686 180.267C111.519 182.1 114.481 182.1 116.314 180.267L125.122 171.497C126.814 169.795 129.158 168.75 131.75 168.75C136.925 168.75 141.125 172.945 141.125 178.125C141.125 180.717 138.87 183.169 137.169 184.866Z" fill="#394240"/>
<path d="M137.169 184.866L113 209.034L88.8312 184.866C87.1297 183.169 84.875 180.717 84.875 178.125C84.875 172.945 89.075 168.75 94.25 168.75C96.8422 168.75 99.1859 169.795 100.878 171.497L109.686 180.267C111.519 182.1 114.481 182.1 116.314 180.267L125.122 171.497C126.814 169.795 129.158 168.75 131.75 168.75C136.925 168.75 141.125 172.945 141.125 178.125C141.125 180.717 138.87 183.169 137.169 184.866Z" fill="#F76D57"/>
<path opacity="0.2" d="M216.125 281.25C216.125 286.425 211.925 290.625 206.75 290.625H19.25C14.075 290.625 9.875 286.425 9.875 281.25V271.875H216.125V281.25Z" fill="black"/>
</svg>
