<svg width="300" height="300" viewBox="0 0 300 300" fill="none" xmlns="http://www.w3.org/2000/svg">
<g clip-path="url(#clip0_53_211)">
<path d="M294.108 122.545L190.519 81.1078L192.155 66.4031C192.459 62.7422 194.648 30.0797 177.806 11.775C170.719 4.06875 161.105 0 150 0C138.895 0 129.281 4.06875 122.189 11.775C105.347 30.0797 107.536 62.7422 107.869 66.6609L110.306 88.5844L109.608 82.2891L5.64844 127.336C2.22188 128.817 0 132.202 0 135.938V159.375C0 164.55 4.2 168.75 9.375 168.75H119.217L126.244 232.003L97.2703 255.178C95.0437 256.955 93.75 259.655 93.75 262.5V271.875C93.75 277.05 97.95 281.25 103.125 281.25H131.859C133.809 291.098 139.805 300 150 300C160.247 300 166.242 291.019 168.145 281.25H196.875C202.05 281.25 206.25 277.05 206.25 271.875V262.5C206.25 259.655 204.956 256.955 202.73 255.178L173.756 232.003L181.003 166.781L180.783 168.75H290.625C295.8 168.75 300 164.55 300 159.375V131.25C300 127.42 297.666 123.966 294.108 122.545ZM9.375 135.938L110.691 92.0344L116.091 140.625H9.375V135.938ZM118.172 159.375H9.375V150H117.131L118.73 164.4L118.172 159.375ZM103.125 262.5L127.467 243.028L130.673 271.875H103.125V262.5ZM159.352 276.759C158.92 281.55 156.413 290.625 150 290.625C143.592 290.625 141.066 281.423 140.602 276.375L117.206 65.7516C117.014 63.3703 114.942 33.4969 129.089 18.1219C134.433 12.3187 141.469 9.375 150 9.375C158.531 9.375 165.567 12.3187 170.911 18.1219C185.011 33.45 183.009 63.1031 182.822 65.5031L159.352 276.759ZM196.875 262.5V271.875H169.327L172.533 243.028L196.875 262.5ZM290.625 159.375H181.823L182.869 150H290.625V159.375ZM290.625 140.625H183.909L189.445 90.7781L290.625 131.25V140.625Z" fill="#394240"/>
<path d="M159.352 276.759C158.92 281.55 156.412 290.625 150 290.625C143.592 290.625 141.066 281.423 140.602 276.375L117.206 65.7516C117.014 63.3703 114.942 33.4969 129.089 18.1219C134.433 12.3187 141.469 9.375 150 9.375C158.531 9.375 165.567 12.3187 170.911 18.1219C185.011 33.45 183.009 63.1031 182.822 65.5031L159.352 276.759Z" fill="#F76D57"/>
<path d="M103.125 262.5V271.875H130.673L127.467 243.028L103.125 262.5Z" fill="#B4CCB9"/>
<path d="M169.327 271.875H196.875V262.5L172.533 243.028L169.327 271.875Z" fill="#B4CCB9"/>
<path d="M110.691 92.0343L9.375 135.937V140.625H116.091L110.691 92.0343Z" fill="#B4CCB9"/>
<path d="M118.73 164.4L117.131 150H9.375V159.375H118.172L118.73 164.4Z" fill="#B4CCB9"/>
<path d="M181.823 159.375H290.625V150H182.869L181.823 159.375Z" fill="#B4CCB9"/>
<path d="M189.445 90.7781L183.909 140.625H290.625V131.25L189.445 90.7781Z" fill="#B4CCB9"/>
<g opacity="0.15">
<path d="M9.375 150V159.375H118.172L118.73 164.4L117.131 150H9.375Z" fill="#231F20"/>
<path d="M182.869 150L181.823 159.375H290.625V150H182.869Z" fill="#231F20"/>
</g>
</g>
<defs>
<clipPath id="clip0_53_211">
<rect width="300" height="300" fill="white"/>
</clipPath>
</defs>
</svg>
