<svg width="24" height="24" viewBox="0 0 24 24" fill="none" xmlns="http://www.w3.org/2000/svg">
<path fill-rule="evenodd" clip-rule="evenodd" d="M22.4 13.5471H18.4C17.9584 13.5471 17.6 13.8816 17.6 14.2938V17.2803C17.6 17.6932 17.9584 18.0269 18.4 18.0269H22.4V21.7601C22.4 22.173 22.0416 22.5067 21.6 22.5067H2.4C1.9584 22.5067 1.6 22.173 1.6 21.7601V7.57409H21.6C22.0416 7.57409 22.4 7.90784 22.4 8.32073V13.5471ZM22.4 15.787V16.5337H19.2V15.787V15.0404H22.4V15.787ZM20.8 1.60104V6.08083H5.2L20.8 1.60104ZM22.4 6.08083V0.854404C22.4 0.441517 22.2112 0.213039 21.8 0.0614722C21.4832 -0.055749 21.1752 0.0144432 20.8 0.107772L0 6.08083V22.5067C0 23.331 0.7168 24 1.6 24H22.4C23.2832 24 24 23.331 24 22.5067V7.57409C24 6.74981 23.2832 6.08083 22.4 6.08083Z" fill="white"/>
</svg>
